<svg width="26" height="25" viewBox="0 0 26 25" fill="none" xmlns="http://www.w3.org/2000/svg">
<path d="M16.3834 21.6801H9.70661C7.86603 21.6801 6.36819 20.0589 6.36819 18.0667V6.02225C6.36819 4.03009 7.86603 2.4089 9.70661 2.4089H16.3834C18.224 2.4089 19.7219 4.03009 19.7219 6.02225V18.0667C19.7219 20.0589 18.224 21.6801 16.3834 21.6801Z" fill="#F2FF87"/>
<path fill-rule="evenodd" clip-rule="evenodd" d="M13.4534 0H9.7055C6.6386 0 4.14258 2.70158 4.14258 6.02225V18.0667C4.14258 21.3874 6.6386 24.089 9.70661 24.089H16.3834C18.1595 24.089 19.7263 23.1664 20.7456 21.7596C21.5647 20.3747 21.7932 19.5967 21.805 19.3808C21.893 18.9556 21.9475 18.5184 21.9475 18.0655V6.02225C21.9475 2.70158 19.4515 0 16.3834 0H15.8193H13.4534ZM9.70661 21.6801H16.3834C18.224 21.6801 19.7219 20.0589 19.7219 18.0667V6.02225C19.7219 4.03009 18.224 2.4089 16.3834 2.4089H9.70661C7.86603 2.4089 6.36819 4.03009 6.36819 6.02225V18.0667C6.36819 20.0589 7.86603 21.6801 9.70661 21.6801Z" fill="#8F8E94"/>
<path d="M20.8027 9.28809H14.1754" stroke="#8F8E94" stroke-width="2"/>
<path d="M16.5794 13.1476L13.1133 9.26883L16.5794 5.46436" stroke="#8F8E94" stroke-width="2" stroke-linejoin="round"/>
<path d="M20.2435 16.7021C26.5855 16.7021 26.5855 9.28775 20.2435 9.28775H13.1358" stroke="#8F8E94" stroke-width="2"/>
<path d="M5.19727 15.1099H11.8245" stroke="#8F8E94" stroke-width="2"/>
<path d="M9.42072 11.2497L12.8867 15.1285L9.42072 18.9331" stroke="#8F8E94" stroke-width="2" stroke-linejoin="round"/>
<path d="M5.75633 7.6958C-0.585449 7.6958 -0.585436 15.1104 5.75633 15.1104H12.8639" stroke="#8F8E94" stroke-width="2"/>
</svg>
