<svg width="26" height="27" viewBox="0 0 26 27" fill="none" xmlns="http://www.w3.org/2000/svg">
<path d="M1 13.2272C1 11.1248 7.3291 7.84663 12.947 7.84663C18.7401 7.84667 25 10.6828 25 13.2272C25 15.7716 18.2251 18.7812 12.947 18.7812C7.25574 18.7812 1.00003 15.6156 1 13.2272Z" fill="#F2FF87"/>
<path d="M12.947 7.84663C7.3291 7.84663 1 11.1248 1 13.2272C1.00003 15.6156 7.25574 18.7812 12.947 18.7812M12.947 7.84663C18.7401 7.84667 25 10.6828 25 13.2272C25 15.7716 18.2251 18.7812 12.947 18.7812M12.947 7.84663V1M12.947 18.7812V25.0736" stroke="#8F8E94" stroke-width="2" stroke-miterlimit="10" stroke-linecap="round"/>
<path d="M22.1336 22.9438C22.4617 23.388 23.0878 23.4822 23.5321 23.1542C23.9764 22.8261 24.0706 22.2 23.7425 21.7557L22.1336 22.9438ZM19.4043 17.5645L18.5999 18.1585L22.1336 22.9438L22.938 22.3497L23.7425 21.7557L20.2087 16.9704L19.4043 17.5645Z" fill="#8F8E94"/>
<path d="M21.8406 3.86629C22.1687 3.42201 22.7948 3.32782 23.2391 3.6559C23.6834 3.98398 23.7776 4.6101 23.4495 5.05437L21.8406 3.86629ZM19.1113 9.24561L18.3069 8.65156L21.8406 3.86629L22.6451 4.46033L23.4495 5.05437L19.9158 9.83965L19.1113 9.24561Z" fill="#8F8E94"/>
<path d="M4.3078 22.9438C3.97972 23.388 3.3536 23.4822 2.90932 23.1542C2.46505 22.8261 2.37085 22.2 2.69893 21.7557L4.3078 22.9438ZM7.03711 17.5645L7.84154 18.1585L4.3078 22.9438L3.50337 22.3497L2.69893 21.7557L6.23268 16.9704L7.03711 17.5645Z" fill="#8F8E94"/>
<path d="M4.01288 3.86629C3.6848 3.42201 3.05868 3.32782 2.6144 3.6559C2.17013 3.98398 2.07593 4.6101 2.40401 5.05437L4.01288 3.86629ZM6.74219 9.24561L7.54662 8.65156L4.01288 3.86629L3.20845 4.46033L2.40401 5.05437L5.93775 9.83965L6.74219 9.24561Z" fill="#8F8E94"/>
<path d="M13 9.15186C13.0231 9.16615 13.0611 9.19356 13.1123 9.24658C13.2501 9.38937 13.4199 9.64862 13.584 10.0503C13.9102 10.849 14.1347 12.0214 14.1348 13.3677C14.1348 14.7142 13.9103 15.8872 13.584 16.686C13.4199 17.0877 13.2501 17.347 13.1123 17.4897C13.0614 17.5425 13.0231 17.5691 13 17.5835C12.9768 17.5691 12.9393 17.5422 12.8887 17.4897C12.7508 17.347 12.5802 17.0879 12.416 16.686C12.0898 15.8872 11.8652 14.7142 11.8652 13.3677C11.8653 12.0214 12.0898 10.849 12.416 10.0503C12.5802 9.6484 12.7508 9.38932 12.8887 9.24658C12.9396 9.19382 12.9769 9.1662 13 9.15186Z" fill="#8F8E94" stroke="#8F8E94" stroke-width="2"/>
</svg>
