<svg width="27" height="28" viewBox="0 0 27 28" fill="none" xmlns="http://www.w3.org/2000/svg">
<path d="M13.5 26.0195C11.718 25.8176 -4.70473 8.46144 3.08394 1.91861C4.88817 0.402999 11.4266 0.130912 13.3999 6.5951" stroke="#8F8E94" stroke-width="2" stroke-miterlimit="10"/>
<path d="M12.4419 6.30343C12.2808 6.8317 12.5785 7.39053 13.1068 7.55162C13.635 7.7127 14.1939 7.41503 14.355 6.88676L12.4419 6.30343ZM23.9146 1.91861L24.5578 1.15291C23.9137 0.61187 22.9536 0.264801 21.936 0.111975C20.894 -0.0445184 19.6858 -0.0143452 18.4718 0.295489C16.0064 0.924706 13.5381 2.70838 12.4419 6.30343L13.3984 6.5951L14.355 6.88676C15.2298 4.01763 17.1175 2.70525 18.9664 2.23337C19.9095 1.99265 20.848 1.97101 21.6389 2.08979C22.4543 2.21224 23.0133 2.46754 23.2714 2.6843L23.9146 1.91861Z" fill="#8F8E94"/>
<path d="M13.5 26.0189C15.282 25.8191 31.7047 8.4608 23.916 1.91797" stroke="#8F8E94" stroke-width="2" stroke-miterlimit="10" stroke-linecap="round"/>
</svg>
