<svg width="390" height="844" viewBox="0 0 390 844" fill="none" xmlns="http://www.w3.org/2000/svg">
<g clip-path="url(#clip0_2854_1235)">
<rect width="390" height="844" fill="#141516"/>
<path d="M322.251 443.583L262.461 374.095" stroke="#F2FF87" stroke-width="32.4363"/>
<path d="M243.674 434.125L253.072 362.791L324.232 364.81" stroke="#F2FF87" stroke-width="32.4363" stroke-linejoin="round"/>
<path d="M175.342 430.084L239.466 504.608C296.681 571.103 374.42 504.213 317.205 437.718L253.081 363.194" stroke="#F2FF87" stroke-width="32.4363"/>
<path d="M67.9512 462.104L127.741 531.592" stroke="#F2FF87" stroke-width="32.4363"/>
<path d="M146.527 471.562L137.129 542.896L65.9692 540.877" stroke="#F2FF87" stroke-width="32.4363" stroke-linejoin="round"/>
<path d="M214.861 475.601L150.738 401.077C93.5223 334.582 15.7829 401.472 72.998 467.967L137.122 542.492" stroke="#F2FF87" stroke-width="32.4363"/>
<path d="M272.337 276C271.167 276 270.765 275.406 271.131 274.217L293.947 204.226C294.239 203.409 294.824 203 295.702 203H315.227C316.104 203 316.689 203.409 316.982 204.226L339.908 274.217C340.2 275.406 339.798 276 338.701 276H322.247C321.296 276 320.711 275.591 320.492 274.774L309.413 234.429C308.682 231.754 307.987 229.079 307.329 226.405C306.671 223.73 306.049 221.092 305.464 218.492H305.245C304.66 221.166 304.038 223.841 303.38 226.516C302.722 229.191 302.027 231.866 301.296 234.54L290.436 274.663C290.217 275.554 289.632 276 288.681 276H272.337ZM290.985 262.96L293.837 248.583H316.543L319.505 262.96H290.985Z" fill="#F2FF87"/>
<path d="M208.553 276C207.518 276 207 275.48 207 274.44V204.56C207 203.52 207.518 203 208.553 203H234.617C246.3 203 254.951 205.712 260.571 211.136C266.19 216.485 269 224.436 269 234.986V243.122C269 253.97 266.19 262.18 260.571 267.753C254.951 273.251 246.3 276 234.617 276H208.553ZM225.301 260.285H233.397C239.386 260.285 243.749 258.762 246.485 255.716C249.295 252.595 250.699 248.175 250.699 242.453V235.655C250.699 230.231 249.295 226.07 246.485 223.173C243.749 220.201 239.386 218.715 233.397 218.715H225.301V260.285Z" fill="#F2FF87"/>
<path d="M132.357 276C131.17 276 130.762 275.406 131.132 274.217L154.279 204.226C154.576 203.409 155.169 203 156.06 203H175.868C176.758 203 177.352 203.409 177.648 204.226L200.906 274.217C201.203 275.406 200.795 276 199.682 276H182.99C182.025 276 181.432 275.591 181.209 274.774L169.97 234.429C169.228 231.754 168.523 229.079 167.856 226.405C167.188 223.73 166.557 221.092 165.964 218.492H165.741C165.148 221.166 164.517 223.841 163.849 226.516C163.182 229.191 162.477 231.866 161.735 234.54L150.718 274.663C150.496 275.554 149.902 276 148.938 276H132.357ZM151.275 262.96L154.168 248.583H177.203L180.208 262.96H151.275Z" fill="#F2FF87"/>
<path d="M69.5528 276C68.5176 276 68 275.48 68 274.44V204.56C68 203.52 68.5176 203 69.5528 203H95.6172C107.3 203 115.951 205.712 121.571 211.136C127.19 216.485 130 224.436 130 234.986V243.122C130 253.97 127.19 262.18 121.571 267.753C115.951 273.251 107.3 276 95.6172 276H69.5528ZM86.3005 260.285H94.3971C100.386 260.285 104.749 258.762 107.485 255.716C110.295 252.595 111.699 248.175 111.699 242.453V235.655C111.699 230.231 110.295 226.07 107.485 223.173C104.749 220.201 100.386 218.715 94.3971 218.715H86.3005V260.285Z" fill="#F2FF87"/>
<path d="M268.357 700C267.17 700 266.762 699.414 267.132 698.241L290.279 629.209C290.576 628.403 291.169 628 292.06 628H311.868C312.758 628 313.352 628.403 313.648 629.209L336.906 698.241C337.203 699.414 336.795 700 335.682 700H318.99C318.025 700 317.432 699.597 317.209 698.791L305.97 658.998C305.228 656.36 304.523 653.722 303.856 651.084C303.188 648.446 302.557 645.844 301.964 643.279H301.741C301.148 645.918 300.517 648.556 299.849 651.194C299.182 653.832 298.477 656.47 297.735 659.108L286.718 698.681C286.496 699.56 285.902 700 284.938 700H268.357ZM287.275 687.139L290.168 672.959H313.203L316.208 687.139H287.275Z" fill="#F2FF87"/>
<path d="M205.553 700C204.518 700 204 699.487 204 698.461V629.539C204 628.513 204.518 628 205.553 628H231.617C243.3 628 251.951 630.675 257.571 636.024C263.19 641.301 266 649.142 266 659.548V667.573C266 678.272 263.19 686.369 257.571 691.866C251.951 697.289 243.3 700 231.617 700H205.553ZM222.301 684.501H230.397C236.386 684.501 240.749 682.998 243.485 679.994C246.295 676.916 247.699 672.556 247.699 666.913V660.208C247.699 654.858 246.295 650.754 243.485 647.896C240.749 644.965 236.386 643.499 230.397 643.499H222.301V684.501Z" fill="#F2FF87"/>
<path d="M160.555 702C150.48 702 142.869 699.67 137.722 695.011C132.574 690.351 130 683.102 130 673.265V629.553C130 628.518 130.515 628 131.544 628H146.767C147.723 628 148.201 628.518 148.201 629.553V672.378C148.201 676.742 149.12 680.144 150.958 682.585C152.87 685.025 156.069 686.246 160.555 686.246C164.967 686.246 168.093 685.025 169.931 682.585C171.843 680.144 172.799 676.742 172.799 672.378V629.553C172.799 628.518 173.314 628 174.344 628H189.456C190.485 628 191 628.518 191 629.553V673.265C191 683.028 188.426 690.277 183.278 695.011C178.131 699.67 170.556 702 160.555 702Z" fill="#F2FF87"/>
<path d="M85.9769 700C85.025 700 84.5491 699.487 84.5491 698.461V643.719H66.5376C65.5125 643.719 65 643.206 65 642.18V629.539C65 628.513 65.5125 628 66.5376 628H120.572C121.524 628 122 628.513 122 629.539V642.18C122 643.206 121.524 643.719 120.572 643.719H102.561V698.461C102.561 699.487 102.048 700 101.023 700H85.9769Z" fill="#F2FF87"/>
</g>
<defs>
<clipPath id="clip0_2854_1235">
<rect width="390" height="844" fill="white"/>
</clipPath>
</defs>
</svg>
