<svg width="361" height="654" viewBox="0 0 361 654" fill="none" xmlns="http://www.w3.org/2000/svg">
<g style="mix-blend-mode:darken">
<rect width="361" height="654" rx="16" fill="black" fill-opacity="0.7"/>
</g>
<g style="mix-blend-mode:darken">
<rect width="361" height="654" rx="16" fill="url(#paint0_linear_1148_1608)" fill-opacity="0.74"/>
</g>
<path d="M336.527 432.5L16.001 432.5" stroke="#FF601C" stroke-width="20"/>
<path d="M72.6447 380L16 432.5L72.6447 485" stroke="#FF601C" stroke-width="20" stroke-linejoin="round"/>
<path d="M262.448 363.657C261.02 363.657 260.53 362.944 260.976 361.516L288.812 277.472C289.169 276.491 289.883 276 290.953 276H314.775C315.845 276 316.559 276.491 316.916 277.472L344.886 361.516C345.243 362.944 344.752 363.657 343.414 363.657H323.34C322.18 363.657 321.466 363.167 321.198 362.185L307.682 313.739C306.789 310.528 305.942 307.316 305.139 304.104C304.336 300.892 303.578 297.725 302.864 294.602H302.596C301.882 297.814 301.124 301.026 300.321 304.238C299.518 307.45 298.671 310.661 297.778 313.873L284.529 362.051C284.262 363.122 283.548 363.657 282.388 363.657H262.448ZM285.199 347.999L288.678 330.736H316.38L319.994 347.999H285.199Z" fill="#FF601C"/>
<path d="M186.198 363.657C184.949 363.657 184.324 363.033 184.324 361.784V277.874C184.324 276.625 184.949 276 186.198 276H217.647C231.744 276 242.183 279.256 248.963 285.769C255.744 292.193 259.134 301.74 259.134 314.409V324.178C259.134 337.204 255.744 347.063 248.963 353.754C242.183 360.356 231.744 363.657 217.647 363.657H186.198ZM206.406 344.788H216.175C223.402 344.788 228.666 342.959 231.967 339.301C235.357 335.553 237.052 330.245 237.052 323.375V315.212C237.052 308.699 235.357 303.702 231.967 300.223C228.666 296.654 223.402 294.87 216.175 294.87H206.406V344.788Z" fill="#FF601C"/>
<path d="M132.25 365.263C120.027 365.263 110.793 362.453 104.548 356.832C98.3023 351.211 95.1797 342.468 95.1797 330.602V277.874C95.1797 276.625 95.8042 276 97.0533 276H115.522C116.681 276 117.261 276.625 117.261 277.874V329.531C117.261 334.795 118.377 338.899 120.607 341.843C122.927 344.788 126.808 346.26 132.25 346.26C137.603 346.26 141.395 344.788 143.625 341.843C145.945 338.899 147.105 334.795 147.105 329.531V277.874C147.105 276.625 147.729 276 148.979 276H167.313C168.562 276 169.187 276.625 169.187 277.874V330.602C169.187 342.379 166.064 351.122 159.819 356.832C153.573 362.453 144.384 365.263 132.25 365.263Z" fill="#FF601C"/>
<path d="M41.5611 363.657C40.4013 363.657 39.8214 363.033 39.8214 361.784V295.137H17.8736C16.6245 295.137 16 294.513 16 293.264V277.874C16 276.625 16.6245 276 17.8736 276H83.7169C84.8768 276 85.4567 276.625 85.4567 277.874V293.264C85.4567 294.513 84.8768 295.137 83.7169 295.137H61.7692V361.784C61.7692 363.033 61.1446 363.657 59.8956 363.657H41.5611Z" fill="#FF601C"/>
<defs>
<linearGradient id="paint0_linear_1148_1608" x1="180.5" y1="0" x2="180.5" y2="654" gradientUnits="userSpaceOnUse">
<stop offset="0.735" stop-color="#E9E9E9" stop-opacity="0"/>
<stop offset="1" stop-color="#FF601C"/>
</linearGradient>
</defs>
</svg>
