<svg width="361" height="654" viewBox="0 0 361 654" fill="none" xmlns="http://www.w3.org/2000/svg">
<g style="mix-blend-mode:darken">
<rect width="361" height="654" rx="16" fill="black" fill-opacity="0.7"/>
</g>
<g style="mix-blend-mode:darken">
<rect width="361" height="654" rx="16" fill="url(#paint0_linear_1148_1609)" fill-opacity="0.74"/>
</g>
<path d="M16 432.5H336.526" stroke="#8CF63B" stroke-width="20"/>
<path d="M279.883 485L336.527 432.5L279.883 380" stroke="#8CF63B" stroke-width="20" stroke-linejoin="round"/>
<path d="M263.609 363C262.201 363 261.717 362.292 262.157 360.875L289.602 277.461C289.954 276.487 290.658 276 291.714 276H315.2C316.256 276 316.96 276.487 317.312 277.461L344.889 360.875C345.241 362.292 344.757 363 343.437 363H323.645C322.502 363 321.798 362.513 321.534 361.539L308.207 313.456C307.327 310.269 306.492 307.081 305.7 303.893C304.908 300.705 304.161 297.562 303.457 294.463H303.193C302.489 297.65 301.742 300.838 300.95 304.026C300.158 307.214 299.323 310.402 298.443 313.589L285.38 361.406C285.116 362.469 284.412 363 283.269 363H263.609ZM286.04 347.46L289.47 330.325H316.784L320.346 347.46H286.04Z" fill="#8CF63B"/>
<path d="M186.878 364C185.626 364 185 363.373 185 362.119V277.881C185 276.627 185.626 276 186.878 276H218.408C232.54 276 243.005 279.269 249.803 285.808C256.601 292.256 260 301.84 260 314.559V324.366C260 337.443 256.601 347.34 249.803 354.058C243.005 360.686 232.54 364 218.408 364H186.878ZM207.138 345.056H216.932C224.177 345.056 229.454 343.22 232.764 339.548C236.163 335.786 237.862 330.457 237.862 323.56V315.365C237.862 308.826 236.163 303.811 232.764 300.318C229.454 296.735 224.177 294.944 216.932 294.944H207.138V345.056Z" fill="#8CF63B"/>
<path d="M94.6279 364C93.2035 364 92.7138 363.283 93.159 361.85L120.935 277.478C121.291 276.493 122.003 276 123.072 276H146.841C147.91 276 148.622 276.493 148.978 277.478L176.888 361.85C177.244 363.283 176.754 364 175.419 364H155.388C154.231 364 153.518 363.507 153.251 362.522L139.764 313.887C138.874 310.663 138.028 307.438 137.227 304.214C136.425 300.989 135.669 297.81 134.956 294.675H134.689C133.977 297.899 133.22 301.124 132.419 304.348C131.618 307.573 130.772 310.797 129.882 314.021L116.662 362.388C116.395 363.463 115.682 364 114.525 364H94.6279ZM117.329 348.281L120.801 330.95H148.444L152.049 348.281H117.329Z" fill="#8CF63B"/>
<path d="M17.9034 364C16.6345 364 16 363.373 16 362.119V277.881C16 276.627 16.6345 276 17.9034 276H49.8533C64.1741 276 74.7788 279.269 81.6673 285.808C88.5558 292.256 92 301.84 92 314.559V324.366C92 337.443 88.5558 347.34 81.6673 354.058C74.7788 360.686 64.1741 364 49.8533 364H17.9034ZM38.4329 345.056H48.3578C55.6995 345.056 61.0471 343.22 64.4007 339.548C67.845 335.786 69.5671 330.457 69.5671 323.56V315.365C69.5671 308.826 67.845 303.811 64.4007 300.318C61.0471 296.735 55.6995 294.944 48.3578 294.944H38.4329V345.056Z" fill="#8CF63B"/>
<defs>
<linearGradient id="paint0_linear_1148_1609" x1="180.5" y1="0" x2="180.5" y2="654" gradientUnits="userSpaceOnUse">
<stop offset="0.735" stop-color="#E9E9E9" stop-opacity="0"/>
<stop offset="1" stop-color="#8CF63B"/>
</linearGradient>
</defs>
</svg>
