<svg width="24" height="24" viewBox="0 0 24 24" fill="none" xmlns="http://www.w3.org/2000/svg">
<g clip-path="url(#clip0_1200_301)">
<path d="M21.193 3.83206L14.193 0.488059C12.823 -0.165941 11.253 -0.165941 9.883 0.488059L2.883 3.83206C1.155 4.65706 0.0390017 6.42906 0.0390017 8.34106L1.67833e-06 22.9971C-0.000998322 23.5501 0.445002 23.9991 0.998002 24.0001H1C1.551 24.0001 1.999 23.5541 2 23.0031L2.008 20.0001H22V23.0001C22 23.5531 22.448 24.0001 23 24.0001C23.552 24.0001 24 23.5531 24 23.0001V8.34406C24 6.38806 22.924 4.65806 21.193 3.83206ZM10.745 2.29306C11.567 1.90106 12.51 1.90006 13.331 2.29306L18.998 5.00006H5.078L10.745 2.29306ZM13 18.0001V13.0001L14.6 11.8001C15.042 11.4691 15.131 10.8421 14.8 10.4011C14.47 9.95906 13.843 9.87006 13.4 10.2011L11.8 11.4011C11.299 11.7761 11 12.3751 11 13.0011V18.0011H2.013L2.038 8.34506C2.038 7.87006 2.158 7.41306 2.365 7.00106H4.999V8.00106C4.999 8.55406 5.447 9.00106 5.999 9.00106C6.551 9.00106 6.999 8.55406 6.999 8.00106V7.00106H10.999V8.00106C10.999 8.55406 11.447 9.00106 11.999 9.00106C12.551 9.00106 12.999 8.55406 12.999 8.00106V7.00106H16.999V8.00106C16.999 8.55406 17.447 9.00106 17.999 9.00106C18.551 9.00106 18.999 8.55406 18.999 8.00106V7.00106H21.691C21.888 7.40806 21.999 7.86306 21.999 8.34506V18.0011H12.999L13 18.0001ZM18 23.0001C18 23.5531 17.552 24.0001 17 24.0001H7C6.448 24.0001 6 23.5531 6 23.0001C6 22.4471 6.448 22.0001 7 22.0001H17C17.552 22.0001 18 22.4471 18 23.0001Z" fill="#7B7B89"/>
</g>
<defs>
<clipPath id="clip0_1200_301">
<rect width="24" height="24" fill="white"/>
</clipPath>
</defs>
</svg>
