<svg width="24" height="24" viewBox="0 0 24 24" fill="none" xmlns="http://www.w3.org/2000/svg">
<g clip-path="url(#clip0_1200_307)">
<path d="M17.1151 8.05005C16.8284 8.12623 16.5707 8.2857 16.3746 8.50832C16.1785 8.73093 16.0529 9.00668 16.0135 9.30071C15.9741 9.59474 16.0228 9.89384 16.1535 10.1602C16.2841 10.4265 16.4907 10.6482 16.7473 10.7971C17.0039 10.946 17.2988 11.0155 17.5949 10.9968C17.891 10.978 18.1748 10.872 18.4106 10.6919C18.6464 10.5119 18.8235 10.266 18.9195 9.98531C19.0155 9.70463 19.0262 9.40178 18.9501 9.11505C18.8995 8.92462 18.812 8.746 18.6924 8.58941C18.5728 8.43282 18.4236 8.30132 18.2532 8.20242C18.0828 8.10353 17.8946 8.03917 17.6993 8.01302C17.504 7.98688 17.3055 7.99946 17.1151 8.05005Z" fill="#7B7B89"/>
<path d="M12.1151 5.05005C11.8284 5.12623 11.5707 5.2857 11.3746 5.50831C11.1785 5.73093 11.0529 6.00668 11.0135 6.30071C10.9741 6.59474 11.0228 6.89384 11.1535 7.16019C11.2841 7.42654 11.4907 7.64818 11.7473 7.79709C12.0039 7.946 12.2988 8.01548 12.5949 7.99677C12.891 7.97805 13.1748 7.87197 13.4106 7.69193C13.6464 7.51189 13.8235 7.26599 13.9195 6.98531C14.0155 6.70463 14.0262 6.40178 13.9501 6.11505C13.8995 5.92462 13.812 5.746 13.6924 5.58941C13.5728 5.43282 13.4236 5.30132 13.2532 5.20242C13.0828 5.10353 12.8946 5.03917 12.6993 5.01302C12.504 4.98688 12.3055 4.99946 12.1151 5.05005Z" fill="#7B7B89"/>
<path d="M7.11507 8.05005C6.82837 8.12623 6.57069 8.2857 6.37461 8.50832C6.17854 8.73093 6.05288 9.00668 6.01351 9.30071C5.97415 9.59474 6.02285 9.89384 6.15346 10.1602C6.28407 10.4265 6.49073 10.6482 6.7473 10.7971C7.00387 10.946 7.29883 11.0155 7.59489 10.9968C7.89095 10.978 8.17481 10.872 8.41059 10.6919C8.64636 10.5119 8.82346 10.266 8.91948 9.98531C9.01551 9.70463 9.02616 9.40178 8.95007 9.11505C8.89954 8.92462 8.81199 8.746 8.69242 8.58941C8.57285 8.43282 8.4236 8.30132 8.25319 8.20242C8.08279 8.10353 7.89457 8.03917 7.69929 8.01302C7.50401 7.98688 7.30549 7.99946 7.11507 8.05005Z" fill="#7B7B89"/>
<path d="M7.11507 14.0501C6.82837 14.1262 6.57069 14.2857 6.37461 14.5083C6.17854 14.7309 6.05288 15.0067 6.01351 15.3007C5.97415 15.5947 6.02285 15.8938 6.15346 16.1602C6.28407 16.4265 6.49073 16.6482 6.7473 16.7971C7.00387 16.946 7.29883 17.0155 7.59489 16.9968C7.89095 16.978 8.17481 16.872 8.41059 16.6919C8.64636 16.5119 8.82346 16.266 8.91948 15.9853C9.01551 15.7046 9.02616 15.4018 8.95007 15.1151C8.89954 14.9246 8.81199 14.746 8.69242 14.5894C8.57285 14.4328 8.4236 14.3013 8.25319 14.2024C8.08279 14.1035 7.89457 14.0392 7.69929 14.013C7.50401 13.9869 7.30549 13.9995 7.11507 14.0501Z" fill="#7B7B89"/>
<path d="M12.5 0.00700384C10.89 -0.0489779 9.2852 0.219794 7.78128 0.797296C6.27736 1.3748 4.90512 2.24921 3.74637 3.36839C2.58762 4.48757 1.66609 5.82861 1.0367 7.31157C0.407318 8.79452 0.0829746 10.389 0.0830078 12C0.086713 15.1815 1.35219 18.2316 3.60182 20.4812C5.85145 22.7308 8.90155 23.9963 12.083 24C12.421 24 12.753 23.978 13.083 23.95C13.3334 23.9289 13.5667 23.8143 13.7364 23.629C13.9061 23.4437 13.9999 23.2013 13.999 22.95L13.967 19.362C13.9589 18.653 14.1623 17.9576 14.5513 17.3647C14.9402 16.7718 15.497 16.3083 16.1506 16.0334C16.8042 15.7584 17.5249 15.6845 18.2207 15.821C18.9165 15.9576 19.5558 16.2984 20.057 16.8L20.157 16.9C20.384 17.129 20.6653 17.2968 20.9745 17.3879C21.2838 17.479 21.6111 17.4904 21.926 17.421C22.2358 17.356 22.5243 17.2141 22.7649 17.0084C23.0055 16.8028 23.1906 16.5399 23.303 16.244C23.8551 14.7943 24.1191 13.2508 24.08 11.7C23.9675 8.65402 22.7146 5.76148 20.5698 3.59574C18.425 1.42999 15.5448 0.149116 12.5 0.00700384ZM21.482 15.407L21.468 15.393C20.6864 14.6126 19.6902 14.0824 18.6064 13.8698C17.5225 13.6572 16.3999 13.7719 15.3814 14.1991C14.3629 14.6264 13.4945 15.3469 12.8866 16.2691C12.2788 17.1914 11.959 18.2735 11.968 19.378L11.992 22C9.33984 21.9881 6.80105 20.9231 4.93412 19.0393C3.0672 17.1554 2.02507 14.6072 2.03701 11.955C2.04894 9.30284 3.11396 6.76404 4.99776 4.89712C6.88156 3.03019 9.42984 1.98807 12.082 2C12.199 2 12.317 2 12.435 2.006C14.9714 2.12514 17.3705 3.19274 19.1568 4.99727C20.9432 6.80179 21.9865 9.21154 22.08 11.749C22.113 12.9926 21.9112 14.2312 21.485 15.4L21.482 15.407Z" fill="#7B7B89"/>
</g>
<defs>
<clipPath id="clip0_1200_307">
<rect width="24" height="24" fill="white"/>
</clipPath>
</defs>
</svg>
