<svg width="24" height="25" viewBox="0 0 24 25" fill="none" xmlns="http://www.w3.org/2000/svg">
<path d="M20.0227 10.0114H19.9076C20.0465 9.55413 20.0779 9.07101 19.9995 8.59963C19.921 8.12826 19.7347 7.68137 19.4552 7.2938C19.1757 6.90623 18.8104 6.58845 18.3879 6.36521C17.9654 6.14198 17.497 6.01933 17.0193 6.00682H3.00341C-2.45378 6.37924 1.00114 14.6676 2.41374 16.9312C3.04722 17.8908 3.91096 18.6765 4.92612 19.2165C5.94128 19.7566 7.07553 20.0337 8.22533 20.0227H11.7964C12.9276 20.0331 14.0439 19.7644 15.0466 19.2406C16.0493 18.7167 16.9073 17.9538 17.5449 17.0193H20.0227C24.8422 16.9262 25.7883 9.83316 20.0227 10.0114ZM11.7964 18.0205H8.22533C7.40859 18.0315 6.60211 17.8376 5.87963 17.4565C5.15716 17.0754 4.54174 16.5193 4.08964 15.839C3.54502 15.3174 0.494561 8.00909 3.00341 8.00909H17.0193C17.1571 8.00864 17.2933 8.03741 17.4191 8.09349C17.5449 8.14958 17.6574 8.23171 17.7491 8.33446C17.8467 8.44197 17.9205 8.56892 17.9655 8.70695C18.0105 8.84499 18.0258 8.99099 18.0104 9.13537C17.4468 13.3992 16.3866 17.8312 11.7964 18.0205ZM20.0227 15.017H18.6091C19.0207 14.048 19.3404 13.0424 19.5642 12.0136C20.7746 11.9325 22.1131 12.2299 22.025 13.1579C21.9925 13.6652 21.7668 14.1406 21.3943 14.4865C21.0218 14.8323 20.531 15.0222 20.0227 15.017ZM9.03525 3.00341V1.00114C9.03525 0.735618 9.14073 0.480975 9.32848 0.293226C9.51623 0.105477 9.77087 0 10.0364 0C10.3019 0 10.5566 0.105477 10.7443 0.293226C10.9321 0.480975 11.0375 0.735618 11.0375 1.00114V3.00341C11.0375 3.26893 10.9321 3.52357 10.7443 3.71132C10.5566 3.89907 10.3019 4.00454 10.0364 4.00454C9.77087 4.00454 9.51623 3.89907 9.32848 3.71132C9.14073 3.52357 9.03525 3.26893 9.03525 3.00341ZM13.0398 3.00341V1.00114C13.0398 0.735618 13.1453 0.480975 13.333 0.293226C13.5208 0.105477 13.7754 0 14.0409 0C14.3065 0 14.5611 0.105477 14.7488 0.293226C14.9366 0.480975 15.0421 0.735618 15.0421 1.00114V3.00341C15.0421 3.26893 14.9366 3.52357 14.7488 3.71132C14.5611 3.89907 14.3065 4.00454 14.0409 4.00454C13.7754 4.00454 13.5208 3.89907 13.333 3.71132C13.1453 3.52357 13.0398 3.26893 13.0398 3.00341ZM5.03071 3.00341V1.00114C5.03071 0.735618 5.13619 0.480975 5.32394 0.293226C5.51168 0.105477 5.76633 0 6.03185 0C6.29736 0 6.55201 0.105477 6.73976 0.293226C6.92751 0.480975 7.03298 0.735618 7.03298 1.00114V3.00341C7.03298 3.26893 6.92751 3.52357 6.73976 3.71132C6.55201 3.89907 6.29736 4.00454 6.03185 4.00454C5.76633 4.00454 5.51168 3.89907 5.32394 3.71132C5.13619 3.52357 5.03071 3.26893 5.03071 3.00341ZM20.0227 23.0261C20.0227 23.2917 19.9172 23.5463 19.7295 23.734C19.5417 23.9218 19.2871 24.0273 19.0216 24.0273H1.00114C0.735618 24.0273 0.480975 23.9218 0.293226 23.734C0.105477 23.5463 0 23.2917 0 23.0261C0 22.7606 0.105477 22.506 0.293226 22.3182C0.480975 22.1305 0.735618 22.025 1.00114 22.025H19.0216C19.2871 22.025 19.5417 22.1305 19.7295 22.3182C19.9172 22.506 20.0227 22.7606 20.0227 23.0261Z" fill="#7B7B89"/>
</svg>
