<svg width="26" height="27" viewBox="0 0 26 27" fill="none" xmlns="http://www.w3.org/2000/svg">
<path d="M13 25.0203C14.7107 24.8265 30.4765 8.16455 22.9994 1.88343C21.2674 0.428448 14.4144 0.0945403 12.52 6.30016" fill="black"/>
<path d="M13 25.0186C11.2893 24.8247 -4.47654 8.16279 3.00058 1.88167C4.73264 0.426683 11.0095 0.16548 12.9039 6.3711" fill="black"/>
<path d="M13 25.0186C11.2893 24.8247 -4.47654 8.16279 3.00058 1.88167C4.73264 0.426683 11.0095 0.16548 12.9039 6.3711" stroke="black" stroke-width="2" stroke-miterlimit="10"/>
<path d="M22.9978 1.88167C21.2658 0.426683 14.7946 0.16548 12.9023 6.3711L22.9978 1.88167Z" fill="black"/>
<path d="M11.9458 6.07943C11.7847 6.6077 12.0824 7.16654 12.6107 7.32762C13.1389 7.4887 13.6978 7.19103 13.8589 6.66276L11.9458 6.07943ZM22.9978 1.88167L23.6411 1.11597C23.015 0.590086 22.0853 0.255065 21.1043 0.107744C20.099 -0.0432435 18.9337 -0.0141066 17.7629 0.284717C15.3838 0.891911 13.0026 2.61367 11.9458 6.07943L12.9023 6.3711L13.8589 6.66276C14.6943 3.92291 16.4948 2.67246 18.2575 2.2226C19.1575 1.99289 20.053 1.97229 20.8073 2.08556C21.586 2.20251 22.1146 2.44576 22.3546 2.64736L22.9978 1.88167Z" fill="black"/>
<path d="M13 25.0182C14.7107 24.8264 30.4765 8.16247 22.9994 1.88135L13 25.0182Z" fill="black"/>
<path d="M13 25.0182C14.7107 24.8264 30.4765 8.16247 22.9994 1.88135" stroke="black" stroke-width="2" stroke-miterlimit="10" stroke-linecap="round"/>
</svg>
