<svg width="24" height="24" viewBox="0 0 24 24" fill="none" xmlns="http://www.w3.org/2000/svg">
<g clip-path="url(#clip0_1200_316)">
<path d="M7 12C10.309 12 13 9.309 13 6H14C14.553 6 15 5.553 15 5C15 4.447 14.553 4 14 4H12.65C11.824 1.673 9.607 0 7 0C3.691 0 1 2.691 1 6C1 9.309 3.691 12 7 12ZM7 10C4.794 10 3 8.206 3 6H11C11 8.206 9.206 10 7 10ZM7 2C8.474 2 9.75 2.81 10.444 4H3.556C4.25 2.81 5.526 2 7 2ZM13.601 18.666C13.866 19.413 14 20.198 14 21V23C14 23.553 13.553 24 13 24C12.447 24 12 23.553 12 23V21C12 20.427 11.904 19.866 11.716 19.334C11.531 18.813 11.804 18.242 12.324 18.058C12.842 17.875 13.417 18.145 13.601 18.666ZM23.565 3.364L20 5.249V9.063C20 9.956 19.606 10.796 18.92 11.368L14.197 15.305C13.659 15.753 12.977 16 12.276 16H7C4.243 16 2 18.243 2 21V23C2 23.553 1.553 24 1 24C0.447 24 0 23.553 0 23V21C0 17.141 3.141 14 7 14H12.276C12.509 14 12.737 13.918 12.916 13.769L17.64 9.831C17.869 9.641 18 9.361 18 9.063V1C18 0.447 18.447 0 19 0C19.6 0 20.195 0.128 20.751 0.377L23.564 1.636C24.145 2.035 24.145 2.965 23.564 3.365L23.565 3.364Z" fill="#7B7B89"/>
</g>
<defs>
<clipPath id="clip0_1200_316">
<rect width="24" height="24" fill="white"/>
</clipPath>
</defs>
</svg>
